<?xml version="1.0" encoding="UTF-8" standalone="no"?>
<!DOCTYPE svg PUBLIC "-//W3C//DTD SVG 1.1//EN"
 "http://www.w3.org/Graphics/SVG/1.1/DTD/svg11.dtd">
<!-- Generated by graphviz version 2.42.4 (0)
 -->
<!-- Title: Research Roadmap Pages: 1 -->
<svg width="698pt" height="1418pt"
 viewBox="0.00 0.00 698.40 1418.40" xmlns="http://www.w3.org/2000/svg" xmlns:xlink="http://www.w3.org/1999/xlink">
<g id="graph0" class="graph" transform="scale(1 1) rotate(0) translate(25.2 1393.2)">
<title>Research Roadmap</title>
<polygon fill="white" stroke="transparent" points="-25.2,25.2 -25.2,-1393.2 673.2,-1393.2 673.2,25.2 -25.2,25.2"/>
<text text-anchor="middle" x="324" y="-1344.8" font-family="Arial" font-size="24.00">Evidence&#45;Gated Research Roadmap</text>
<!-- foundation -->
<g id="node1" class="node">
<title>foundation</title>
<path fill="#eaf0f7" stroke="#6e8bab" d="M330.5,-1334C330.5,-1334 16.5,-1334 16.5,-1334 10.5,-1334 4.5,-1328 4.5,-1322 4.5,-1322 4.5,-1247 4.5,-1247 4.5,-1241 10.5,-1235 16.5,-1235 16.5,-1235 330.5,-1235 330.5,-1235 336.5,-1235 342.5,-1241 342.5,-1247 342.5,-1247 342.5,-1322 342.5,-1322 342.5,-1328 336.5,-1334 330.5,-1334"/>
<text text-anchor="middle" x="173.5" y="-1314.4" font-family="Arial" font-size="12.00">FOUNDATION</text>
<text text-anchor="middle" x="173.5" y="-1287.4" font-family="Arial" font-size="12.00">Theory &amp; difference map</text>
<text text-anchor="middle" x="173.5" y="-1274.4" font-family="Arial" font-size="12.00">Operational definitions</text>
<text text-anchor="middle" x="173.5" y="-1261.4" font-family="Arial" font-size="12.00">Measurement battery</text>
<text text-anchor="middle" x="173.5" y="-1248.4" font-family="Arial" font-size="12.00">Observer / reconstruction controls</text>
</g>
<!-- gate0 -->
<g id="node2" class="node">
<title>gate0</title>
<path fill="#ffffff" stroke="#555555" d="M162.41,-1189.41C162.41,-1189.41 73.59,-1152.59 73.59,-1152.59 68.04,-1150.3 68.04,-1145.7 73.59,-1143.41 73.59,-1143.41 162.41,-1106.59 162.41,-1106.59 167.96,-1104.3 179.04,-1104.3 184.59,-1106.59 184.59,-1106.59 273.41,-1143.41 273.41,-1143.41 278.96,-1145.7 278.96,-1150.3 273.41,-1152.59 273.41,-1152.59 184.59,-1189.41 184.59,-1189.41 179.04,-1191.7 167.96,-1191.7 162.41,-1189.41"/>
<text text-anchor="middle" x="173.5" y="-1151.4" font-family="Arial" font-size="12.00">Gate 0</text>
<text text-anchor="middle" x="173.5" y="-1138.4" font-family="Arial" font-size="12.00">Valid measure?</text>
</g>
<!-- foundation&#45;&gt;gate0 -->
<g id="edge1" class="edge">
<title>foundation&#45;&gt;gate0</title>
<path fill="none" stroke="#666666" d="M173.5,-1234.94C173.5,-1224.39 173.5,-1213.17 173.5,-1202.44"/>
<polygon fill="#666666" stroke="#666666" points="176.3,-1202.35 173.5,-1194.35 170.7,-1202.35 176.3,-1202.35"/>
</g>
<!-- level1 -->
<g id="node3" class="node">
<title>level1</title>
<path fill="#edf5e8" stroke="#7fa36b" d="M330.5,-1061C330.5,-1061 16.5,-1061 16.5,-1061 10.5,-1061 4.5,-1055 4.5,-1049 4.5,-1049 4.5,-961 4.5,-961 4.5,-955 10.5,-949 16.5,-949 16.5,-949 330.5,-949 330.5,-949 336.5,-949 342.5,-955 342.5,-961 342.5,-961 342.5,-1049 342.5,-1049 342.5,-1055 336.5,-1061 330.5,-1061"/>
<text text-anchor="middle" x="173.5" y="-1041.4" font-family="Arial" font-size="12.00">LEVEL 1 — SCAFFOLDED PERSISTENCE</text>
<text text-anchor="middle" x="173.5" y="-1014.4" font-family="Arial" font-size="12.00">Fresh / context / explicit memory</text>
<text text-anchor="middle" x="173.5" y="-1001.4" font-family="Arial" font-size="12.00">Scheduled updates versus replay</text>
<text text-anchor="middle" x="173.5" y="-988.4" font-family="Arial" font-size="12.00">Quiet intervals</text>
<text text-anchor="middle" x="173.5" y="-975.4" font-family="Arial" font-size="12.00">Reset, fork, and state swap</text>
<text text-anchor="middle" x="173.5" y="-962.4" font-family="Arial" font-size="12.00">Metacognition + source ownership</text>
</g>
<!-- gate0&#45;&gt;level1 -->
<g id="edge2" class="edge">
<title>gate0&#45;&gt;level1</title>
<path fill="none" stroke="#666666" d="M173.5,-1102C173.5,-1091.66 173.5,-1080.47 173.5,-1069.51"/>
<polygon fill="#666666" stroke="#666666" points="176.3,-1069.2 173.5,-1061.2 170.7,-1069.2 176.3,-1069.2"/>
</g>
<!-- revise -->
<g id="node10" class="node">
<title>revise</title>
<path fill="#fafafa" stroke="#888888" stroke-dasharray="5,2" d="M631.5,-1191C631.5,-1191 389.5,-1191 389.5,-1191 383.5,-1191 377.5,-1185 377.5,-1179 377.5,-1179 377.5,-1117 377.5,-1117 377.5,-1111 383.5,-1105 389.5,-1105 389.5,-1105 631.5,-1105 631.5,-1105 637.5,-1105 643.5,-1111 643.5,-1117 643.5,-1117 643.5,-1179 643.5,-1179 643.5,-1185 637.5,-1191 631.5,-1191"/>
<text text-anchor="middle" x="510.5" y="-1171.4" font-family="Arial" font-size="12.00">AT EVERY GATE</text>
<text text-anchor="middle" x="510.5" y="-1144.4" font-family="Arial" font-size="12.00">register → run → interpret</text>
<text text-anchor="middle" x="510.5" y="-1131.4" font-family="Arial" font-size="12.00">update map &amp; hypotheses</text>
<text text-anchor="middle" x="510.5" y="-1118.4" font-family="Arial" font-size="12.00">update risks &amp; backlog</text>
</g>
<!-- gate0&#45;&gt;revise -->
<g id="edge9" class="edge">
<title>gate0&#45;&gt;revise</title>
<path fill="none" stroke="#666666" stroke-dasharray="5,2" d="M284.78,-1148C311.74,-1148 340.92,-1148 369.06,-1148"/>
<polygon fill="#666666" stroke="#666666" points="369.36,-1150.8 377.36,-1148 369.36,-1145.2 369.36,-1150.8"/>
<text text-anchor="middle" x="331" y="-1154" font-family="Arial" font-size="10.00">redesign / null</text>
</g>
<!-- gate1 -->
<g id="node4" class="node">
<title>gate1</title>
<path fill="#ffffff" stroke="#555555" d="M162.28,-903.75C162.28,-903.75 28.72,-853.25 28.72,-853.25 23.11,-851.12 23.11,-846.88 28.72,-844.75 28.72,-844.75 162.28,-794.25 162.28,-794.25 167.89,-792.12 179.11,-792.12 184.72,-794.25 184.72,-794.25 318.28,-844.75 318.28,-844.75 323.89,-846.88 323.89,-851.12 318.28,-853.25 318.28,-853.25 184.72,-903.75 184.72,-903.75 179.11,-905.88 167.89,-905.88 162.28,-903.75"/>
<text text-anchor="middle" x="173.5" y="-858.9" font-family="Arial" font-size="12.00">Gate 1</text>
<text text-anchor="middle" x="173.5" y="-845.9" font-family="Arial" font-size="12.00">Beyond memory, replay,</text>
<text text-anchor="middle" x="173.5" y="-832.9" font-family="Arial" font-size="12.00">and extra compute?</text>
</g>
<!-- level1&#45;&gt;gate1 -->
<g id="edge3" class="edge">
<title>level1&#45;&gt;gate1</title>
<path fill="none" stroke="#666666" d="M173.5,-948.84C173.5,-938.31 173.5,-927.2 173.5,-916.37"/>
<polygon fill="#666666" stroke="#666666" points="176.3,-916.16 173.5,-908.16 170.7,-916.16 176.3,-916.16"/>
</g>
<!-- level2 -->
<g id="node5" class="node">
<title>level2</title>
<path fill="#fff5d8" stroke="#b6953f" d="M330.5,-749C330.5,-749 16.5,-749 16.5,-749 10.5,-749 4.5,-743 4.5,-737 4.5,-737 4.5,-649 4.5,-649 4.5,-643 10.5,-637 16.5,-637 16.5,-637 330.5,-637 330.5,-637 336.5,-637 342.5,-643 342.5,-649 342.5,-649 342.5,-737 342.5,-737 342.5,-743 336.5,-749 330.5,-749"/>
<text text-anchor="middle" x="173.5" y="-729.4" font-family="Arial" font-size="12.00">LEVEL 2 — LATENT RECURRENCE</text>
<text text-anchor="middle" x="173.5" y="-702.4" font-family="Arial" font-size="12.00">Native recurrent model</text>
<text text-anchor="middle" x="173.5" y="-689.4" font-family="Arial" font-size="12.00">State snapshot / restore</text>
<text text-anchor="middle" x="173.5" y="-676.4" font-family="Arial" font-size="12.00">Reset, swap, and intervention</text>
<text text-anchor="middle" x="173.5" y="-663.4" font-family="Arial" font-size="12.00">Recurrent adapter + null observation</text>
<text text-anchor="middle" x="173.5" y="-650.4" font-family="Arial" font-size="12.00">Monitor / content / self&#45;indexing</text>
</g>
<!-- gate1&#45;&gt;level2 -->
<g id="edge4" class="edge">
<title>gate1&#45;&gt;level2</title>
<path fill="none" stroke="#666666" d="M173.5,-789.78C173.5,-779.19 173.5,-768.1 173.5,-757.37"/>
<polygon fill="#666666" stroke="#666666" points="176.3,-757.25 173.5,-749.25 170.7,-757.25 176.3,-757.25"/>
</g>
<!-- gate1&#45;&gt;revise -->
<g id="edge10" class="edge">
<title>gate1&#45;&gt;revise</title>
<path fill="none" stroke="#666666" stroke-dasharray="5,2" d="M237.17,-884.07C290.68,-912.71 358.5,-949 358.5,-949 358.5,-949 384.5,-1082 384.5,-1082 384.5,-1082 400.8,-1090.41 421.68,-1101.18"/>
<polygon fill="#666666" stroke="#666666" points="420.53,-1103.74 428.92,-1104.92 423.1,-1098.76 420.53,-1103.74"/>
<text text-anchor="middle" x="407" y="-1002.5" font-family="Arial" font-size="10.00">revise / stop</text>
</g>
<!-- gate2 -->
<g id="node6" class="node">
<title>gate2</title>
<path fill="#ffffff" stroke="#555555" d="M162.44,-591.34C162.44,-591.34 44.56,-541.66 44.56,-541.66 39.03,-539.33 39.03,-534.67 44.56,-532.34 44.56,-532.34 162.44,-482.66 162.44,-482.66 167.97,-480.33 179.03,-480.33 184.56,-482.66 184.56,-482.66 302.44,-532.34 302.44,-532.34 307.97,-534.67 307.97,-539.33 302.44,-541.66 302.44,-541.66 184.56,-591.34 184.56,-591.34 179.03,-593.67 167.97,-593.67 162.44,-591.34"/>
<text text-anchor="middle" x="173.5" y="-546.9" font-family="Arial" font-size="12.00">Gate 2</text>
<text text-anchor="middle" x="173.5" y="-533.9" font-family="Arial" font-size="12.00">Selective latent&#45;state</text>
<text text-anchor="middle" x="173.5" y="-520.9" font-family="Arial" font-size="12.00">causal effect?</text>
</g>
<!-- level2&#45;&gt;gate2 -->
<g id="edge5" class="edge">
<title>level2&#45;&gt;gate2</title>
<path fill="none" stroke="#666666" d="M173.5,-636.84C173.5,-626.31 173.5,-615.2 173.5,-604.37"/>
<polygon fill="#666666" stroke="#666666" points="176.3,-604.16 173.5,-596.16 170.7,-604.16 176.3,-604.16"/>
</g>
<!-- level3 -->
<g id="node7" class="node">
<title>level3</title>
<path fill="#f6eaf1" stroke="#a86d90" d="M330.5,-437C330.5,-437 16.5,-437 16.5,-437 10.5,-437 4.5,-431 4.5,-425 4.5,-425 4.5,-337 4.5,-337 4.5,-331 10.5,-325 16.5,-325 16.5,-325 330.5,-325 330.5,-325 336.5,-325 342.5,-331 342.5,-337 342.5,-337 342.5,-425 342.5,-425 342.5,-431 336.5,-437 330.5,-437"/>
<text text-anchor="middle" x="173.5" y="-417.4" font-family="Arial" font-size="12.00">LEVEL 3 — DEVELOPMENTAL ORGANISM</text>
<text text-anchor="middle" x="173.5" y="-390.4" font-family="Arial" font-size="12.00">Continuity Garden environment</text>
<text text-anchor="middle" x="173.5" y="-377.4" font-family="Arial" font-size="12.00">Endogenous regulation</text>
<text text-anchor="middle" x="173.5" y="-364.4" font-family="Arial" font-size="12.00">Developmental twins</text>
<text text-anchor="middle" x="173.5" y="-351.4" font-family="Arial" font-size="12.00">Online learning and consolidation</text>
<text text-anchor="middle" x="173.5" y="-338.4" font-family="Arial" font-size="12.00">Small persistent synthetic organism</text>
</g>
<!-- gate2&#45;&gt;level3 -->
<g id="edge6" class="edge">
<title>gate2&#45;&gt;level3</title>
<path fill="none" stroke="#666666" d="M173.5,-477.78C173.5,-467.19 173.5,-456.1 173.5,-445.37"/>
<polygon fill="#666666" stroke="#666666" points="176.3,-445.25 173.5,-437.25 170.7,-445.25 176.3,-445.25"/>
</g>
<!-- gate2&#45;&gt;revise -->
<g id="edge11" class="edge">
<title>gate2&#45;&gt;revise</title>
<path fill="none" stroke="#666666" stroke-dasharray="5,2" d="M231.57,-571.73C268.54,-593.2 309.5,-617 309.5,-617 309.5,-617 358.5,-637 358.5,-637 358.5,-637 381.5,-770 381.5,-770 381.5,-770 417.5,-908 417.5,-908 417.5,-908 429.5,-929 429.5,-929 429.5,-929 442.5,-949 442.5,-949 442.5,-949 454.5,-1082 454.5,-1082 454.5,-1082 460.6,-1089.08 468.77,-1098.56"/>
<polygon fill="#666666" stroke="#666666" points="466.74,-1100.5 474.09,-1104.73 470.99,-1096.85 466.74,-1100.5"/>
<text text-anchor="middle" x="452.5" y="-846.5" font-family="Arial" font-size="10.00">refine / replicate</text>
</g>
<!-- gate3 -->
<g id="node8" class="node">
<title>gate3</title>
<path fill="#ffffff" stroke="#555555" d="M162.56,-279.07C162.56,-279.07 53.44,-229.93 53.44,-229.93 47.97,-227.46 47.97,-222.54 53.44,-220.07 53.44,-220.07 162.56,-170.93 162.56,-170.93 168.03,-168.46 178.97,-168.46 184.44,-170.93 184.44,-170.93 293.56,-220.07 293.56,-220.07 299.03,-222.54 299.03,-227.46 293.56,-229.93 293.56,-229.93 184.44,-279.07 184.44,-279.07 178.97,-281.54 168.03,-281.54 162.56,-279.07"/>
<text text-anchor="middle" x="173.5" y="-234.9" font-family="Arial" font-size="12.00">Gate 3</text>
<text text-anchor="middle" x="173.5" y="-221.9" font-family="Arial" font-size="12.00">Development adds</text>
<text text-anchor="middle" x="173.5" y="-208.9" font-family="Arial" font-size="12.00">scientific leverage?</text>
</g>
<!-- level3&#45;&gt;gate3 -->
<g id="edge7" class="edge">
<title>level3&#45;&gt;gate3</title>
<path fill="none" stroke="#666666" d="M173.5,-324.84C173.5,-314.31 173.5,-303.2 173.5,-292.37"/>
<polygon fill="#666666" stroke="#666666" points="176.3,-292.16 173.5,-284.16 170.7,-292.16 176.3,-292.16"/>
</g>
<!-- contribution -->
<g id="node9" class="node">
<title>contribution</title>
<polygon fill="#eef3f8" stroke="#6e8bab" points="336.5,-125 4.5,-125 4.5,0 342.5,0 342.5,-119 336.5,-125"/>
<polyline fill="none" stroke="#6e8bab" points="336.5,-125 336.5,-119 "/>
<polyline fill="none" stroke="#6e8bab" points="342.5,-119 336.5,-119 "/>
<text text-anchor="middle" x="173.5" y="-105.4" font-family="Arial" font-size="12.00">CONTRIBUTION OPTIONS</text>
<text text-anchor="middle" x="173.5" y="-78.4" font-family="Arial" font-size="12.00">Measurement framework</text>
<text text-anchor="middle" x="173.5" y="-65.4" font-family="Arial" font-size="12.00">Controlled null result</text>
<text text-anchor="middle" x="173.5" y="-52.4" font-family="Arial" font-size="12.00">Causal mechanism</text>
<text text-anchor="middle" x="173.5" y="-39.4" font-family="Arial" font-size="12.00">Recurrent architecture</text>
<text text-anchor="middle" x="173.5" y="-26.4" font-family="Arial" font-size="12.00">Developmental model organism</text>
<text text-anchor="middle" x="173.5" y="-13.4" font-family="Arial" font-size="12.00">Theory&#45;discriminating experiment</text>
</g>
<!-- gate3&#45;&gt;contribution -->
<g id="edge8" class="edge">
<title>gate3&#45;&gt;contribution</title>
<path fill="none" stroke="#666666" d="M173.5,-165.6C173.5,-155.1 173.5,-144.06 173.5,-133.28"/>
<polygon fill="#666666" stroke="#666666" points="176.3,-133.1 173.5,-125.1 170.7,-133.1 176.3,-133.1"/>
</g>
<!-- gate3&#45;&gt;revise -->
<g id="edge12" class="edge">
<title>gate3&#45;&gt;revise</title>
<path fill="none" stroke="#666666" stroke-dasharray="5,2" d="M232.54,-257.6C286.69,-286.57 358.5,-325 358.5,-325 358.5,-325 491.5,-790 491.5,-790 491.5,-790 502.61,-998.73 507.84,-1096.98"/>
<polygon fill="#666666" stroke="#666666" points="505.04,-1097.16 508.26,-1105 510.64,-1096.86 505.04,-1097.16"/>
<text text-anchor="middle" x="513" y="-690.5" font-family="Arial" font-size="10.00">iterate / publish</text>
</g>
</g>
</svg>
